<?xml version="1.0" encoding="utf-8"?>
<!-- Generator: Adobe Illustrator 24.0.2, SVG Export Plug-In . SVG Version: 6.00 Build 0)  -->
<svg version="1.1" id="Layer_1" xmlns="http://www.w3.org/2000/svg" xmlns:xlink="http://www.w3.org/1999/xlink" x="0px" y="0px"
	 viewBox="0 0 669.38 94.5" style="enable-background:new 0 0 669.38 94.5;" xml:space="preserve">
<style type="text/css">
	.st0{fill:none;}
	.st1{fill:#FFFFFF;}
	.st2{fill:#12FFC1;}
</style>
<rect y="1.02" width="91.23" height="93.13"/>
<g>
	<path d="M102.49,1.33h21.6c7.29,0,12.75,1.95,16.4,5.86c3.64,3.91,5.47,9.63,5.47,17.17v9.18c0,7.54-1.82,13.27-5.47,17.17
		c-3.65,3.91-9.11,5.86-16.4,5.86h-6.93V94.5h-14.67V1.33z M124.09,43.26c2.4,0,4.2-0.67,5.4-2c1.2-1.33,1.8-3.59,1.8-6.79V23.43
		c0-3.19-0.6-5.46-1.8-6.79c-1.2-1.33-3-2-5.4-2h-6.93v28.62H124.09z"/>
	<path d="M153.96,1.33h21.73c7.55,0,13.07,1.75,16.53,5.26c3.47,3.51,5.2,8.9,5.2,16.17v5.72c0,9.67-3.2,15.8-9.6,18.37v0.27
		c3.55,1.06,6.07,3.24,7.53,6.52c1.47,3.28,2.2,7.68,2.2,13.18v16.37c0,2.66,0.09,4.81,0.27,6.46c0.18,1.64,0.62,3.26,1.33,4.86
		h-14.93c-0.53-1.51-0.89-2.93-1.07-4.26c-0.18-1.33-0.27-3.73-0.27-7.19V66.02c0-4.26-0.69-7.23-2.07-8.92
		c-1.38-1.68-3.76-2.53-7.13-2.53h-5.07V94.5h-14.67V1.33z M173.95,41.26c2.93,0,5.13-0.75,6.6-2.26c1.47-1.51,2.2-4.04,2.2-7.59
		v-7.19c0-3.37-0.6-5.81-1.8-7.32c-1.2-1.51-3.09-2.26-5.67-2.26h-6.67v26.62H173.95z"/>
	<path d="M212.35,89.71c-3.82-4.08-5.73-9.85-5.73-17.3V23.43c0-7.45,1.91-13.22,5.73-17.3C216.17,2.04,221.69,0,228.88,0
		s12.71,2.04,16.53,6.12c3.82,4.08,5.73,9.85,5.73,17.3v48.98c0,7.45-1.91,13.22-5.73,17.3c-3.82,4.08-9.33,6.12-16.53,6.12
		S216.17,93.79,212.35,89.71z M236.48,73.34V22.49c0-6.12-2.53-9.18-7.6-9.18s-7.6,3.06-7.6,9.18v50.85c0,6.12,2.53,9.18,7.6,9.18
		S236.48,79.46,236.48,73.34z"/>
	<path d="M271.95,14.64h-15.33V1.33h45.33v13.31h-15.33V94.5h-14.67V14.64z"/>
	<path d="M309.01,1.33h40v13.31h-25.33v24.62h20.13v13.31h-20.13v28.62h25.33V94.5h-40V1.33z"/>
	<path d="M357.41,1.33h14.67V94.5h-14.67V1.33z"/>
	<path d="M383,1.33h18.4l14.27,55.77h0.27V1.33H429V94.5h-15.07l-17.6-68.02h-0.27V94.5H383V1.33z"/>
	<path d="M461.26,1.33h14.67v37.93h15.73V1.33h14.67V94.5h-14.67V52.58h-15.73V94.5h-14.67V1.33z"/>
	<path d="M521.92,89.71c-3.82-4.08-5.73-9.85-5.73-17.3V23.43c0-7.45,1.91-13.22,5.73-17.3C525.74,2.04,531.26,0,538.46,0
		s12.71,2.04,16.53,6.12c3.82,4.08,5.73,9.85,5.73,17.3v48.98c0,7.45-1.91,13.22-5.73,17.3c-3.82,4.08-9.33,6.12-16.53,6.12
		S525.74,93.79,521.92,89.71z M546.06,73.34V22.49c0-6.12-2.53-9.18-7.6-9.18s-7.6,3.06-7.6,9.18v50.85c0,6.12,2.53,9.18,7.6,9.18
		S546.06,79.46,546.06,73.34z"/>
	<path d="M575.65,89.78c-3.73-4.04-5.6-9.83-5.6-17.37V1.33h14.67v72.14c0,3.19,0.64,5.5,1.93,6.92c1.29,1.42,3.13,2.13,5.53,2.13
		c2.4,0,4.24-0.71,5.53-2.13c1.29-1.42,1.93-3.73,1.93-6.92V1.33h14.13v71.08c0,7.54-1.87,13.33-5.6,17.37
		c-3.73,4.04-9.16,6.06-16.27,6.06C584.81,95.83,579.39,93.82,575.65,89.78z"/>
	<path d="M624.18,1.33h21.73c7.55,0,13.07,1.75,16.53,5.26c3.47,3.51,5.2,8.9,5.2,16.17v5.72c0,9.67-3.2,15.8-9.6,18.37v0.27
		c3.55,1.06,6.07,3.24,7.53,6.52c1.47,3.28,2.2,7.68,2.2,13.18v16.37c0,2.66,0.09,4.81,0.27,6.46c0.18,1.64,0.62,3.26,1.33,4.86
		h-14.93c-0.53-1.51-0.89-2.93-1.07-4.26c-0.18-1.33-0.27-3.73-0.27-7.19V66.02c0-4.26-0.69-7.23-2.07-8.92
		c-1.38-1.68-3.76-2.53-7.13-2.53h-5.07V94.5h-14.67V1.33z M644.18,41.26c2.93,0,5.13-0.75,6.6-2.26c1.47-1.51,2.2-4.04,2.2-7.59
		v-7.19c0-3.37-0.6-5.81-1.8-7.32c-1.2-1.51-3.09-2.26-5.67-2.26h-6.67v26.62H644.18z"/>
</g>
<path class="st0" d="M93.6,101.36c-1.87,0-3.25,0.55-4.12,1.65c-0.87,1.1-1.31,2.88-1.31,5.33v3.78c0,2.59,0.53,4.43,1.6,5.53
	c1.07,1.1,2.67,1.65,4.8,1.65h4.17v-17.94H93.6z"/>
<path class="st0" d="M127.89,117.65c1.07-1.1,1.6-2.94,1.6-5.53v-3.78c0-2.46-0.44-4.23-1.31-5.33c-0.87-1.1-2.25-1.65-4.12-1.65
	h-5.14v17.94h4.17C125.22,119.3,126.82,118.75,127.89,117.65z"/>
<g>
	<path class="st1" d="M63.72,45.26c2.33-0.97,4.06-2.55,5.19-4.75c1.13-2.2,1.7-5.04,1.7-8.53v-2.71c0-5.3-1.26-9.23-3.78-11.78
		c-2.52-2.55-6.53-3.83-12.02-3.83H39.86v31.61H63.72z M49.37,23.35h5.14c1.87,0,3.25,0.55,4.12,1.65c0.87,1.1,1.31,2.88,1.31,5.33
		v3.78c0,2.59-0.53,4.43-1.6,5.53c-1.07,1.1-2.67,1.65-4.8,1.65h-4.17V23.35z"/>
	<path class="st2" d="M63.71,45.46v-0.19H39.85v36.26h15.63c5.3,0,9.32-1.37,12.07-4.12c2.75-2.75,4.12-6.74,4.12-11.97v-5.82
		C71.67,51.99,69.01,47.27,63.71,45.46z M61,65.14c0,2.46-0.45,4.19-1.36,5.19c-0.91,1-2.3,1.5-4.17,1.5h-6.11V50.98h4.75
		c2.46,0,4.22,0.6,5.28,1.79c1.07,1.2,1.6,3.35,1.6,6.45V65.14z"/>
	<path class="st2" d="M24.32,45.26v0.19c-5.3,1.81-7.95,6.53-7.95,14.16v5.82c0,5.24,1.37,9.23,4.12,11.97
		c2.75,2.75,6.77,4.12,12.07,4.12h15.63V45.26H24.32z M38.67,71.83h-6.11c-1.87,0-3.26-0.5-4.17-1.5c-0.9-1-1.36-2.73-1.36-5.19
		v-5.91c0-3.1,0.53-5.25,1.6-6.45c1.07-1.2,2.83-1.79,5.28-1.79h4.75V71.83z"/>
	<path class="st1" d="M48.19,13.65H33.24c-5.49,0-9.5,1.28-12.02,3.83c-2.52,2.55-3.78,6.48-3.78,11.78v2.71
		c0,3.49,0.57,6.34,1.7,8.53c1.13,2.2,2.86,3.78,5.19,4.75h23.87V13.65z M34.5,41.29c-2.13,0-3.73-0.55-4.8-1.65
		c-1.07-1.1-1.6-2.94-1.6-5.53v-3.78c0-2.46,0.44-4.23,1.31-5.33c0.87-1.1,2.25-1.65,4.12-1.65h5.14v17.94H34.5z"/>
</g>
</svg>
