<?xml version="1.0" encoding="utf-8"?>
<!-- Generator: Adobe Illustrator 24.0.2, SVG Export Plug-In . SVG Version: 6.00 Build 0)  -->
<svg version="1.1" id="Layer_1" xmlns="http://www.w3.org/2000/svg" xmlns:xlink="http://www.w3.org/1999/xlink" x="0px" y="0px"
	 viewBox="0 0 348.87 93.18" style="enable-background:new 0 0 348.87 93.18;" xml:space="preserve">
<style type="text/css">
	.st0{fill:#4C4B4B;}
	.st1{fill:none;}
	.st2{fill:#12FFC1;}
	.st3{fill:#F7F7F7;}
	.st4{fill:#FFFFFF;}
</style>
<rect y="0.02" class="st0" width="91.23" height="93.13"/>
<path class="st0" d="M106.63,0h14.44v78.75h23.75v13.12h-38.19V0z"/>
<path class="st0" d="M150.44,0h21.79c7.44,0,12.86,1.73,16.27,5.18c3.41,3.46,5.12,8.77,5.12,15.95v3.67c0,4.72-0.77,8.58-2.3,11.55
	c-1.53,2.98-3.87,5.12-7.02,6.43v0.26c7.17,2.45,10.76,8.84,10.76,19.16v7.87c0,7.09-1.86,12.49-5.58,16.21
	c-3.72,3.72-9.17,5.58-16.34,5.58h-22.71V0z M170.52,37.4c2.89,0,5.05-0.74,6.5-2.23c1.44-1.49,2.17-3.98,2.17-7.48v-5.12
	c0-3.32-0.59-5.73-1.77-7.22c-1.18-1.49-3.04-2.23-5.58-2.23h-6.96V37.4H170.52z M173.14,78.75c2.54,0,4.42-0.68,5.64-2.03
	c1.22-1.36,1.84-3.7,1.84-7.02v-8.01c0-4.2-0.72-7.11-2.17-8.73c-1.44-1.62-3.83-2.43-7.15-2.43h-6.43v28.22H173.14z"/>
<path class="st0" d="M208.44,87.21c-3.67-3.98-5.51-9.69-5.51-17.13V0h14.44v71.13c0,3.15,0.63,5.43,1.9,6.82
	c1.27,1.4,3.08,2.1,5.45,2.1s4.18-0.7,5.45-2.1c1.27-1.4,1.9-3.67,1.9-6.82V0h13.91v70.08c0,7.44-1.84,13.15-5.51,17.13
	c-3.67,3.98-9.01,5.97-16.01,5.97C217.45,93.18,212.12,91.19,208.44,87.21z"/>
<path class="st0" d="M256.21,0h14.44v78.75h23.75v13.12h-38.19V0z"/>
<path class="st1" d="M29.46,40.42c-1.6,0.08-3.51,1.21-5.72,3.39l-4.21,4.15c-1.75,1.73-2.66,3.26-2.74,4.61
	c-0.08,1.35,0.54,2.69,1.86,4.02l4.29,4.35l14.85-14.63l-3.34-3.38C32.73,41.17,31.06,40.34,29.46,40.42z"/>
<path class="st1" d="M48.63,57.31l-3.34-3.38L30.45,68.56l4.29,4.35c1.32,1.33,2.65,1.97,4,1.91c1.35-0.06,2.9-0.95,4.65-2.67
	L47.59,68c2.21-2.18,3.37-4.07,3.47-5.67C51.16,60.73,50.35,59.06,48.63,57.31z"/>
<path class="st1" d="M48.63,57.31l-3.34-3.38L30.45,68.56l4.29,4.35c1.32,1.33,2.65,1.97,4,1.91c1.35-0.06,2.9-0.95,4.65-2.67
	L47.59,68c2.21-2.18,3.37-4.07,3.47-5.67C51.16,60.73,50.35,59.06,48.63,57.31z"/>
<path class="st2" d="M59.3,60.27l0.14-0.14l-10.9-11.06l-2.12-2.15L20.59,72.37l2.12,2.15l5.12,5.19c3.72,3.77,7.52,5.68,11.41,5.7
	c3.88,0.03,7.69-1.8,11.42-5.47l4.14-4.08C60.24,70.51,61.74,65.31,59.3,60.27z M43.38,72.15c-1.75,1.73-3.3,2.62-4.65,2.67
	c-1.35,0.06-2.68-0.58-4-1.91l-4.29-4.35l14.85-14.63l3.34,3.38c1.72,1.75,2.53,3.42,2.43,5.02c-0.1,1.6-1.26,3.49-3.47,5.67
	L43.38,72.15z"/>
<rect x="15.17" y="59.15" transform="matrix(0.7122 -0.702 0.702 0.7122 -32.142 40.4882)" class="st2" width="36.26" height="0.57"/>
<rect x="15.37" y="59.65" transform="matrix(0.7122 -0.702 0.702 0.7122 -32.2275 40.6885)" class="st2" width="36.26" height="0"/>
<path class="st2" d="M45.61,46.1L45.61,46.1l-2.92-2.96l-0.01-0.01l-10.9-11.06l-0.14,0.14c-5.01-2.5-10.23-1.08-15.66,4.28
	l-4.14,4.08c-3.73,3.68-5.61,7.46-5.64,11.34c-0.03,3.89,1.82,7.72,5.54,11.49l5.12,5.19l2.93,2.97l0,0l0.4,0.41l25.83-25.46
	L45.61,46.1z M22.94,60.94l-4.29-4.35c-1.32-1.33-1.93-2.68-1.86-4.02c0.08-1.35,0.99-2.88,2.74-4.61l4.21-4.15
	c2.21-2.18,4.11-3.31,5.72-3.39c1.6-0.08,3.26,0.76,4.99,2.5l3.34,3.38L22.94,60.94z"/>
<path class="st3" d="M31.92,31.94l-0.14,0.14l10.9,11.06l2.12,2.15l25.83-25.46l-2.12-2.15l-5.12-5.19
	c-3.72-3.77-7.52-5.68-11.41-5.7c-3.88-0.03-7.69,1.8-11.42,5.47l-4.14,4.08C30.99,21.69,29.49,26.9,31.92,31.94z M47.85,20.06
	c1.75-1.73,3.3-2.62,4.65-2.67c1.35-0.06,2.68,0.58,4,1.91l4.29,4.35L45.93,38.28L42.6,34.9c-1.72-1.75-2.53-3.42-2.43-5.02
	c0.1-1.6,1.26-3.49,3.47-5.67L47.85,20.06z"/>
<rect x="39.79" y="32.48" transform="matrix(0.7122 -0.702 0.702 0.7122 -6.3291 50.0923)" class="st3" width="36.26" height="0.57"/>
<rect x="39.59" y="32.56" transform="matrix(0.7122 -0.702 0.702 0.7122 -6.2436 49.892)" class="st3" width="36.26" height="0"/>
<path class="st3" d="M45.61,46.11L45.61,46.11l2.92,2.96l0.01,0.01l10.9,11.06L59.58,60c5.01,2.5,10.23,1.08,15.66-4.28l4.14-4.08
	c3.73-3.68,5.61-7.46,5.64-11.34c0.03-3.89-1.82-7.72-5.54-11.49l-5.12-5.19l-2.93-2.97l0,0l-0.4-0.41L45.21,45.7L45.61,46.11z
	 M68.29,31.26l4.29,4.35c1.32,1.33,1.93,2.68,1.86,4.02c-0.08,1.35-0.99,2.88-2.74,4.61l-4.21,4.15c-2.21,2.18-4.11,3.31-5.72,3.39
	c-1.6,0.08-3.26-0.76-4.99-2.5l-3.34-3.38L68.29,31.26z"/>
<polygon class="st0" points="333.78,91.87 348.87,91.87 332.13,36.1 322.65,54.54 "/>
<polygon class="st0" points="346.74,0 334.17,0 315.8,38.72 315.8,0 301.36,0 301.36,91.87 315.8,91.87 315.8,62.6 320.18,53.74 
	320.17,53.73 "/>
<rect x="222.62" y="78.29" class="st4" width="3.67" height="14.9"/>
</svg>
